<?xml version="1.0" encoding="UTF-8" ?>
<!DOCTYPE svg PUBLIC "-//W3C//DTD SVG 1.1//EN" "http://www.w3.org/Graphics/SVG/1.1/DTD/svg11.dtd">
<svg width="354pt" height="436pt" viewBox="0 0 354 436" version="1.1" xmlns="http://www.w3.org/2000/svg">
<path fill="#181816" opacity="1.00" d=" M 1.44 202.99 C 1.51 136.16 1.30 69.32 1.59 2.49 C 118.53 2.47 235.47 2.46 352.40 2.49 C 352.40 68.33 352.40 134.16 352.40 200.00 C 352.73 228.08 348.63 256.32 339.28 282.85 C 327.68 315.81 308.40 346.00 283.61 370.59 C 264.66 389.91 242.43 405.89 218.58 418.59 C 205.41 425.37 191.93 431.87 177.68 436.00 L 175.69 436.00 C 170.02 434.47 164.61 432.09 159.15 429.92 C 128.26 417.00 99.50 398.76 75.22 375.64 C 51.90 353.47 32.70 326.79 20.06 297.14 C 7.28 267.53 1.20 235.19 1.44 202.99 M 10.24 11.38 C 10.57 16.28 10.21 21.15 9.61 26.01 C 9.64 86.99 9.55 147.99 9.65 208.97 C 10.86 215.88 9.95 222.93 11.20 229.83 C 15.98 277.98 37.59 324.10 70.86 359.15 C 73.87 362.78 77.21 366.11 80.76 369.21 C 106.79 394.10 138.21 413.14 171.87 425.81 C 173.80 426.42 175.72 427.76 177.82 427.35 C 192.66 421.99 207.13 415.52 220.84 407.68 C 262.01 384.61 297.38 350.27 319.13 308.17 C 333.44 280.62 341.75 249.99 343.50 219.02 C 343.99 149.83 343.42 80.62 343.79 11.42 C 342.20 11.09 340.61 10.69 338.98 10.69 C 233.65 10.77 128.32 10.69 22.98 10.71 C 18.73 10.78 14.41 10.30 10.24 11.38 Z" />
<path fill="#de3530" opacity="1.00" d=" M 10.24 11.38 C 14.41 10.30 18.73 10.78 22.98 10.71 C 128.32 10.69 233.65 10.77 338.98 10.69 C 340.61 10.69 342.20 11.09 343.79 11.42 C 343.42 80.62 343.99 149.83 343.50 219.02 C 341.75 249.99 333.44 280.62 319.13 308.17 C 297.38 350.27 262.01 384.61 220.84 407.68 C 207.13 415.52 192.66 421.99 177.82 427.35 C 175.72 427.76 173.80 426.42 171.87 425.81 C 138.21 413.14 106.79 394.10 80.76 369.21 C 77.21 366.11 73.87 362.78 70.86 359.15 C 37.59 324.10 15.98 277.98 11.20 229.83 C 9.95 222.93 10.86 215.88 9.65 208.97 C 9.55 147.99 9.64 86.99 9.61 26.01 C 10.21 21.15 10.57 16.28 10.24 11.38 M 169.65 50.79 C 169.35 52.22 170.42 54.52 168.41 55.09 C 168.36 61.23 168.34 67.37 168.42 73.50 C 165.19 74.26 161.69 74.96 158.56 73.45 C 158.74 69.53 158.78 65.60 158.44 61.69 C 147.22 61.85 135.99 61.60 124.77 61.79 C 124.49 62.01 123.93 62.46 123.65 62.68 C 123.46 67.58 123.66 72.50 123.63 77.41 C 127.60 77.48 131.58 77.47 135.56 77.50 C 135.58 80.50 135.59 83.49 135.62 86.49 C 131.64 87.86 127.39 87.19 123.27 87.32 C 122.27 92.95 122.87 98.68 122.73 104.36 C 127.01 104.49 131.29 104.45 135.57 104.51 C 135.61 107.75 135.59 111.00 135.45 114.23 C 131.49 114.20 127.53 114.21 123.57 114.34 C 123.62 119.36 123.58 124.38 123.62 129.41 C 135.32 129.50 147.04 129.58 158.74 129.37 C 158.65 125.45 158.67 121.53 158.64 117.61 C 161.88 117.37 165.14 117.35 168.38 117.48 C 168.31 134.97 168.47 152.47 168.30 169.97 C 167.17 169.37 166.02 168.77 164.97 168.04 C 132.37 142.63 99.74 117.25 67.08 91.91 C 60.52 87.54 53.73 83.08 46.01 81.10 C 46.58 82.71 47.17 84.37 48.22 85.75 C 53.11 92.75 59.36 98.69 65.97 104.04 C 96.13 129.57 126.39 155.00 157.06 179.91 C 158.79 181.32 160.80 182.50 161.95 184.49 C 156.88 188.58 151.79 192.62 146.73 196.71 C 145.19 197.87 143.73 199.39 141.71 199.61 C 141.35 197.40 140.92 193.91 137.87 194.24 C 135.60 193.77 134.31 195.71 133.43 197.46 C 128.19 199.50 125.89 204.88 121.87 208.41 C 122.98 210.93 126.08 210.26 128.30 210.87 C 125.14 214.18 121.04 216.34 117.33 218.95 C 117.26 222.15 118.46 225.31 118.32 228.46 C 116.36 231.36 112.97 232.77 110.54 235.22 C 113.01 235.42 115.53 235.55 117.84 236.54 C 116.24 241.51 112.93 246.49 107.93 248.48 C 105.01 249.47 102.67 247.57 100.27 246.35 C 97.99 248.76 96.61 251.96 93.98 254.10 C 87.51 260.56 78.48 263.10 70.90 267.89 C 65.23 271.16 60.61 275.92 56.42 280.90 C 60.76 286.34 63.36 292.95 65.06 299.64 C 65.90 304.32 65.59 309.10 65.67 313.84 C 74.81 312.36 82.94 306.55 87.93 298.85 C 93.67 290.47 98.18 281.31 104.02 272.99 C 110.12 263.97 117.20 255.55 125.45 248.42 C 129.09 245.43 132.51 241.57 137.15 240.24 C 132.52 244.57 127.60 248.67 123.65 253.66 C 121.13 256.60 120.85 260.74 121.65 264.37 C 122.83 266.52 125.05 267.61 127.37 268.04 C 127.80 263.19 128.95 258.10 132.38 254.44 C 137.04 249.43 142.74 245.54 147.69 240.85 C 147.06 238.79 145.47 237.23 144.24 235.53 C 146.29 221.48 156.84 210.94 166.58 201.51 C 167.03 201.44 167.92 201.31 168.37 201.25 C 168.34 217.31 168.45 233.37 168.32 249.43 C 166.74 249.51 165.15 249.60 163.58 249.69 C 163.51 253.96 163.53 258.24 163.55 262.52 C 165.61 262.55 167.67 262.60 169.73 262.63 C 170.14 265.94 169.27 269.18 166.77 271.46 C 163.00 270.03 159.01 269.29 155.02 268.75 C 142.36 268.37 129.54 275.26 123.66 286.63 C 117.72 297.00 118.26 310.47 124.38 320.63 C 128.36 327.08 134.51 332.24 141.67 334.81 C 141.43 342.25 141.65 349.99 145.28 356.71 C 151.81 370.83 168.91 378.69 183.90 374.67 C 195.84 371.88 205.63 361.98 208.72 350.18 C 210.09 345.19 209.45 339.98 209.46 334.88 C 218.12 331.99 225.26 325.24 229.03 316.97 C 233.22 307.53 233.03 296.22 228.14 287.07 C 222.94 276.95 212.37 270.05 201.10 268.92 C 195.36 267.65 189.89 270.80 184.23 270.62 C 181.78 268.94 181.33 265.45 181.31 262.65 C 183.39 262.63 185.48 262.61 187.57 262.58 C 187.63 258.28 187.66 253.98 187.55 249.68 C 186.15 249.62 184.75 249.58 183.35 249.53 C 183.40 233.65 183.20 217.76 183.45 201.87 C 200.71 215.40 217.55 229.47 234.58 243.28 C 234.37 247.94 235.56 253.26 239.93 255.75 C 240.79 254.58 241.67 253.42 242.55 252.26 C 243.83 252.37 245.11 252.48 246.40 252.60 C 246.48 253.79 246.93 255.12 246.08 256.17 C 244.10 259.46 242.70 263.17 242.71 267.05 C 243.27 273.20 247.50 278.10 252.16 281.77 C 259.53 287.92 267.73 295.21 278.04 294.41 C 282.51 294.73 286.78 291.87 287.78 287.43 C 290.95 287.80 294.16 286.55 296.03 283.92 C 298.27 281.50 297.80 277.91 297.27 274.95 C 295.06 270.85 290.94 268.39 287.02 266.15 C 285.68 262.61 282.50 259.55 278.57 259.34 C 276.91 255.54 274.01 252.53 270.04 251.17 C 269.44 249.74 268.57 248.47 267.52 247.34 C 267.51 246.94 267.48 246.15 267.46 245.75 C 269.65 243.58 272.21 241.17 271.76 237.78 C 272.60 233.36 268.54 228.80 264.04 229.44 C 261.59 229.13 259.99 231.16 258.39 232.65 C 257.79 235.70 259.83 239.58 257.20 241.93 C 256.22 241.33 255.24 240.73 254.26 240.14 C 253.73 237.61 256.42 236.32 256.82 234.08 C 253.17 230.48 247.89 231.86 243.34 231.59 C 224.63 216.68 206.08 201.50 187.37 186.55 C 187.39 186.13 187.43 185.29 187.45 184.86 C 220.82 158.46 253.99 131.79 287.30 105.30 C 292.15 101.21 297.46 97.65 302.02 93.21 C 301.10 91.87 299.66 90.77 299.27 89.13 C 304.86 84.15 310.82 79.59 316.69 74.93 C 314.58 71.99 312.32 69.18 310.03 66.38 C 269.45 98.99 228.75 131.47 188.13 164.04 C 186.71 165.29 185.14 166.36 183.40 167.10 C 183.25 130.36 183.39 93.62 183.33 56.89 C 183.46 55.42 182.79 54.50 181.32 54.15 C 181.33 53.01 181.34 51.88 181.35 50.74 C 180.73 49.97 180.10 49.19 179.48 48.42 C 176.11 48.60 171.49 46.97 169.65 50.79 Z" />
<path fill="#181816" opacity="1.00" d=" M 169.65 50.79 C 171.49 46.97 176.11 48.60 179.48 48.42 C 180.10 49.19 180.73 49.97 181.35 50.74 C 181.34 51.88 181.33 53.01 181.32 54.15 C 182.79 54.50 183.46 55.42 183.33 56.89 C 183.39 93.62 183.25 130.36 183.40 167.10 C 185.14 166.36 186.71 165.29 188.13 164.04 C 228.75 131.47 269.45 98.99 310.03 66.38 C 312.32 69.18 314.58 71.99 316.69 74.93 C 310.82 79.59 304.86 84.15 299.27 89.13 C 299.66 90.77 301.10 91.87 302.02 93.21 C 297.46 97.65 292.15 101.21 287.30 105.30 C 253.99 131.79 220.82 158.46 187.45 184.86 C 187.43 185.29 187.39 186.13 187.37 186.55 C 206.08 201.50 224.63 216.68 243.34 231.59 C 247.89 231.86 253.17 230.48 256.82 234.08 C 256.42 236.32 253.73 237.61 254.26 240.14 C 255.24 240.73 256.22 241.33 257.20 241.93 C 259.83 239.58 257.79 235.70 258.39 232.65 C 259.99 231.16 261.59 229.13 264.04 229.44 C 268.54 228.80 272.60 233.36 271.76 237.78 C 272.21 241.17 269.65 243.58 267.46 245.75 C 267.48 246.15 267.51 246.94 267.52 247.34 C 268.57 248.47 269.44 249.74 270.04 251.17 C 274.01 252.53 276.91 255.54 278.57 259.34 C 282.50 259.55 285.68 262.61 287.02 266.15 C 290.94 268.39 295.06 270.85 297.27 274.95 C 297.80 277.91 298.27 281.50 296.03 283.92 C 294.16 286.55 290.95 287.80 287.78 287.43 C 286.78 291.87 282.51 294.73 278.04 294.41 C 267.73 295.21 259.53 287.92 252.16 281.77 C 247.50 278.10 243.27 273.20 242.71 267.05 C 242.70 263.17 244.10 259.46 246.08 256.17 C 246.93 255.12 246.48 253.79 246.40 252.60 C 245.11 252.48 243.83 252.37 242.55 252.26 C 241.67 253.42 240.79 254.58 239.93 255.75 C 235.56 253.26 234.37 247.94 234.58 243.28 C 217.55 229.47 200.71 215.40 183.45 201.87 C 183.20 217.76 183.40 233.65 183.35 249.53 C 184.75 249.58 186.15 249.62 187.55 249.68 C 187.66 253.98 187.63 258.28 187.57 262.58 C 185.48 262.61 183.39 262.63 181.31 262.65 C 181.33 265.45 181.78 268.94 184.23 270.62 C 189.89 270.80 195.36 267.65 201.10 268.92 C 212.37 270.05 222.94 276.95 228.14 287.07 C 233.03 296.22 233.22 307.53 229.03 316.97 C 225.26 325.24 218.12 331.99 209.46 334.88 C 209.45 339.98 210.09 345.19 208.72 350.18 C 205.63 361.98 195.84 371.88 183.90 374.67 C 168.91 378.69 151.81 370.83 145.28 356.71 C 141.65 349.99 141.43 342.25 141.67 334.81 C 134.51 332.24 128.36 327.08 124.38 320.63 C 118.26 310.47 117.72 297.00 123.66 286.63 C 129.54 275.26 142.36 268.37 155.02 268.75 C 159.01 269.29 163.00 270.03 166.77 271.46 C 169.27 269.18 170.14 265.94 169.73 262.63 C 167.67 262.60 165.61 262.55 163.55 262.52 C 163.53 258.24 163.51 253.96 163.58 249.69 C 165.15 249.60 166.74 249.51 168.32 249.43 C 168.45 233.37 168.34 217.31 168.37 201.25 C 167.92 201.31 167.03 201.44 166.58 201.51 C 156.84 210.94 146.29 221.48 144.24 235.53 C 145.47 237.23 147.06 238.79 147.69 240.85 C 142.74 245.54 137.04 249.43 132.38 254.44 C 128.95 258.10 127.80 263.19 127.37 268.04 C 125.05 267.61 122.83 266.52 121.65 264.37 C 120.85 260.74 121.13 256.60 123.65 253.66 C 127.60 248.67 132.52 244.57 137.15 240.24 C 132.51 241.57 129.09 245.43 125.45 248.42 C 117.20 255.55 110.12 263.97 104.02 272.99 C 98.18 281.31 93.67 290.47 87.93 298.85 C 82.94 306.55 74.81 312.36 65.67 313.84 C 65.59 309.10 65.90 304.32 65.06 299.64 C 63.36 292.95 60.76 286.34 56.42 280.90 C 60.61 275.92 65.23 271.16 70.90 267.89 C 78.48 263.10 87.51 260.56 93.98 254.10 C 96.61 251.96 97.99 248.76 100.27 246.35 C 102.67 247.57 105.01 249.47 107.93 248.48 C 112.93 246.49 116.24 241.51 117.84 236.54 C 115.53 235.55 113.01 235.42 110.54 235.22 C 112.97 232.77 116.36 231.36 118.32 228.46 C 118.46 225.31 117.26 222.15 117.33 218.95 C 121.04 216.34 125.14 214.18 128.30 210.87 C 126.08 210.26 122.98 210.93 121.87 208.41 C 125.89 204.88 128.19 199.50 133.43 197.46 C 134.31 195.71 135.60 193.77 137.87 194.24 C 140.92 193.91 141.35 197.40 141.71 199.61 C 143.73 199.39 145.19 197.87 146.73 196.71 C 151.79 192.62 156.88 188.58 161.95 184.49 C 160.80 182.50 158.79 181.32 157.06 179.91 C 126.39 155.00 96.13 129.57 65.97 104.04 C 59.36 98.69 53.11 92.75 48.22 85.75 C 47.17 84.37 46.58 82.71 46.01 81.10 C 53.73 83.08 60.52 87.54 67.08 91.91 C 99.74 117.25 132.37 142.63 164.97 168.04 C 166.02 168.77 167.17 169.37 168.30 169.97 C 168.47 152.47 168.31 134.97 168.38 117.48 C 165.14 117.35 161.88 117.37 158.64 117.61 C 158.67 121.53 158.65 125.45 158.74 129.37 C 147.04 129.58 135.32 129.50 123.62 129.41 C 123.58 124.38 123.62 119.36 123.57 114.34 C 127.53 114.21 131.49 114.20 135.45 114.23 C 135.59 111.00 135.61 107.75 135.57 104.51 C 131.29 104.45 127.01 104.49 122.73 104.36 C 122.87 98.68 122.27 92.95 123.27 87.32 C 127.39 87.19 131.64 87.86 135.62 86.49 C 135.59 83.49 135.58 80.50 135.56 77.50 C 131.58 77.47 127.60 77.48 123.63 77.41 C 123.66 72.50 123.46 67.58 123.65 62.68 C 123.93 62.46 124.49 62.01 124.77 61.79 C 135.99 61.60 147.22 61.85 158.44 61.69 C 158.78 65.60 158.74 69.53 158.56 73.45 C 161.69 74.96 165.19 74.26 168.42 73.50 C 168.34 67.37 168.36 61.23 168.41 55.09 C 170.42 54.52 169.35 52.22 169.65 50.79 M 172.98 50.86 C 172.23 52.00 172.47 53.44 172.28 54.73 C 174.43 54.77 176.58 54.76 178.73 54.73 C 178.52 53.46 178.85 51.99 178.07 50.88 C 176.41 50.48 174.65 50.59 172.98 50.86 M 171.05 57.37 C 170.88 119.11 171.00 180.86 170.99 242.60 C 174.12 242.66 177.25 242.67 180.38 242.54 C 180.37 180.83 180.34 119.12 180.39 57.41 C 177.28 57.35 174.16 57.35 171.05 57.37 M 126.31 74.70 C 130.37 74.71 134.44 74.71 138.51 74.71 C 138.53 79.67 138.48 84.63 138.53 89.59 C 134.32 89.59 130.12 89.59 125.91 89.61 C 125.79 93.59 125.88 97.58 125.81 101.56 C 130.06 101.67 134.30 101.61 138.55 101.63 C 138.47 106.60 138.50 111.57 138.55 116.54 C 134.48 116.52 130.40 116.53 126.32 116.51 C 126.33 119.85 126.33 123.19 126.22 126.53 C 136.21 126.53 146.20 126.68 156.19 126.45 C 156.09 122.51 156.17 118.57 156.04 114.64 C 160.16 114.56 164.29 114.60 168.42 114.57 C 168.48 102.17 168.27 89.78 168.52 77.38 C 164.47 76.38 160.27 77.05 156.14 76.82 C 156.11 72.77 156.14 68.72 156.13 64.67 C 146.21 64.64 136.29 64.66 126.37 64.66 C 126.29 68.00 126.30 71.35 126.31 74.70 M 183.41 171.43 C 182.86 173.41 183.22 175.53 183.12 177.56 C 192.92 170.25 202.01 161.94 212.05 154.99 C 213.10 156.17 213.59 158.17 215.18 158.74 C 216.83 158.39 217.92 156.87 219.28 155.97 C 218.23 154.50 217.09 153.10 215.89 151.76 C 230.79 139.41 246.27 127.75 261.12 115.33 C 262.32 116.86 263.55 118.38 264.85 119.83 C 266.03 118.83 267.21 117.83 268.40 116.83 C 267.39 115.32 265.61 114.15 265.25 112.31 C 273.81 105.18 282.82 98.58 291.22 91.26 C 292.64 92.64 293.92 94.14 295.17 95.67 C 296.35 94.68 297.55 93.72 298.78 92.80 C 297.78 91.15 296.61 89.61 295.34 88.16 C 301.37 83.73 306.97 78.74 312.92 74.20 C 311.87 72.90 310.84 71.59 309.85 70.26 C 267.58 103.82 225.52 137.67 183.41 171.43 M 49.76 84.32 C 54.87 91.68 61.93 97.31 68.71 103.05 C 100.46 129.65 132.41 156.01 164.03 182.75 C 164.97 182.10 165.91 181.45 166.85 180.81 C 153.83 169.07 139.65 158.59 126.75 146.69 C 141.08 156.75 154.67 167.80 168.33 178.74 C 168.35 177.19 168.37 175.64 168.36 174.10 C 164.16 171.22 160.31 167.89 156.24 164.83 C 125.99 141.19 95.67 117.64 65.40 94.02 C 60.41 90.46 55.39 86.82 49.76 84.32 M 268.05 113.11 C 268.90 113.87 269.79 114.58 270.72 115.25 C 278.07 108.98 285.77 103.13 293.27 97.05 C 292.63 96.21 292.00 95.38 291.37 94.55 C 283.69 100.85 275.89 107.02 268.05 113.11 M 219.19 152.01 C 219.65 152.66 220.58 153.97 221.04 154.63 C 234.88 143.36 248.83 132.23 262.93 121.29 C 262.34 120.47 261.73 119.64 261.14 118.83 C 247.06 129.76 233.30 141.11 219.19 152.01 M 184.06 180.08 C 182.58 181.11 183.32 183.24 182.91 184.72 C 184.04 183.98 185.22 183.28 186.28 182.43 C 195.25 174.99 204.47 167.86 213.45 160.44 C 212.94 159.83 211.90 158.63 211.39 158.02 C 202.31 165.41 193.18 172.74 184.06 180.08 M 164.00 185.95 C 157.71 191.34 151.07 196.30 144.85 201.78 C 148.83 207.98 145.04 215.59 139.51 219.31 C 140.05 221.07 141.17 222.94 140.56 224.84 C 139.89 228.87 134.56 230.94 131.23 228.76 C 128.89 227.65 128.30 224.95 127.54 222.73 C 127.88 219.68 129.45 216.62 132.42 215.39 C 135.20 213.46 140.28 211.42 138.53 207.23 C 132.71 212.16 125.99 215.88 120.01 220.60 C 120.92 225.38 121.58 230.32 120.67 235.15 C 119.69 241.36 115.99 247.16 110.60 250.43 C 107.50 252.22 103.80 251.39 100.70 250.09 C 98.25 254.68 93.93 257.79 89.83 260.80 C 81.01 266.29 70.50 269.34 63.33 277.24 C 69.77 286.37 72.74 297.50 73.65 308.52 C 79.42 305.11 84.24 300.25 87.66 294.49 C 94.95 282.61 101.67 270.29 110.74 259.62 C 119.82 249.15 130.22 239.70 142.19 232.62 C 145.37 217.36 157.72 206.54 168.30 196.11 C 168.61 191.70 168.34 187.27 168.39 182.85 C 166.84 183.76 165.33 184.74 164.00 185.95 M 183.97 191.03 C 197.30 202.02 210.73 212.91 224.05 223.91 C 226.38 225.84 229.00 227.52 230.75 230.04 L 228.86 230.32 C 213.38 218.49 198.53 205.81 183.21 193.77 C 183.37 195.41 182.43 197.71 184.24 198.72 C 201.44 212.66 218.55 226.70 235.84 240.51 C 237.32 237.92 239.24 235.62 241.57 233.75 C 222.34 218.38 203.45 202.58 184.26 187.15 C 183.40 188.27 182.37 190.02 183.97 191.03 M 135.89 196.89 C 136.41 198.13 138.35 198.77 139.48 198.01 C 140.37 195.96 136.29 194.73 135.89 196.89 M 125.19 207.96 C 126.42 208.27 127.64 208.59 128.87 208.93 C 130.34 206.59 131.92 203.57 134.95 203.16 C 138.87 202.17 141.50 206.70 141.53 210.01 C 140.00 215.29 133.36 216.07 130.54 220.38 C 129.36 223.47 131.14 226.23 133.81 227.68 C 135.33 227.04 137.21 226.54 137.81 224.80 C 139.32 222.60 137.01 220.55 135.92 218.78 C 140.21 216.33 144.35 212.18 144.22 206.90 C 143.65 202.36 139.10 199.85 134.95 199.37 C 130.34 200.42 127.87 204.51 125.19 207.96 M 262.90 240.01 C 258.24 245.97 253.58 251.92 248.91 257.87 C 246.24 261.23 244.69 265.84 246.08 270.07 C 247.36 274.26 251.04 276.99 254.16 279.80 C 260.52 285.07 267.28 291.04 275.90 291.72 C 278.93 292.06 283.18 291.66 284.19 288.17 C 285.18 285.98 283.97 283.77 283.18 281.76 C 281.94 281.41 280.57 280.74 279.34 281.54 C 277.83 282.57 278.61 284.70 278.25 286.22 C 272.07 287.22 266.63 283.46 262.03 279.85 C 258.12 276.63 253.82 273.13 252.48 268.02 C 251.56 264.97 252.66 261.78 254.09 259.09 C 257.77 252.36 262.82 246.55 267.42 240.46 C 269.19 238.42 268.97 235.54 267.32 233.52 C 266.35 233.16 265.38 232.79 264.43 232.41 C 260.71 233.20 260.48 237.68 262.90 240.01 M 239.09 251.87 C 244.01 246.38 248.64 240.59 253.00 234.63 C 243.59 231.20 233.72 243.40 239.09 251.87 M 138.16 238.12 C 138.79 239.22 139.41 240.33 140.04 241.44 C 134.79 246.02 129.00 250.19 124.93 255.92 C 123.34 258.35 122.09 262.60 125.29 264.32 C 126.08 261.12 126.95 257.88 128.84 255.14 C 133.05 249.11 139.53 245.24 144.85 240.29 C 143.84 238.87 142.83 237.45 141.85 236.01 C 140.59 236.65 139.37 237.37 138.16 238.12 M 245.28 248.86 C 246.66 249.97 248.04 251.10 249.43 252.20 C 251.55 249.70 253.57 247.12 255.57 244.53 C 254.19 243.47 252.81 242.41 251.46 241.33 C 249.24 243.71 247.28 246.31 245.28 248.86 M 170.96 245.19 C 170.97 246.68 170.98 248.18 171.00 249.68 C 172.14 249.62 173.28 249.56 174.43 249.51 C 174.41 248.10 174.40 246.69 174.39 245.29 C 173.24 245.25 172.10 245.22 170.96 245.19 M 176.90 245.24 C 176.95 246.72 177.01 248.20 177.08 249.69 C 178.16 249.63 179.24 249.59 180.33 249.54 C 180.34 248.10 180.36 246.65 180.38 245.22 C 179.21 245.22 178.05 245.23 176.90 245.24 M 256.27 261.07 C 259.33 264.28 263.92 263.80 267.78 262.61 C 266.30 263.93 264.81 265.25 263.31 266.56 C 266.66 270.23 271.43 272.67 276.53 271.69 C 275.15 272.58 273.78 273.48 272.42 274.38 C 275.02 276.68 278.39 279.37 282.08 277.83 C 282.76 276.05 283.49 274.13 285.33 273.26 C 286.72 272.25 290.01 270.62 287.12 269.08 C 285.47 269.63 283.89 270.36 282.30 271.04 C 282.98 269.36 284.00 267.69 283.78 265.80 C 282.42 263.87 280.54 262.32 278.25 261.66 C 276.82 262.70 275.39 263.72 273.96 264.76 C 274.94 263.36 275.78 261.88 276.16 260.20 C 274.60 257.98 272.85 255.62 270.12 254.81 C 268.08 255.44 266.41 256.91 264.30 257.38 C 265.70 255.67 268.41 254.51 267.90 251.88 C 267.02 250.88 266.07 249.94 265.06 249.07 C 261.04 252.13 258.62 256.71 256.27 261.07 M 166.45 252.18 C 166.44 254.78 166.44 257.38 166.44 259.99 C 172.63 260.10 178.83 260.04 185.03 260.00 C 185.01 257.39 184.99 254.79 184.97 252.18 C 178.79 252.22 172.62 252.17 166.45 252.18 M 173.26 262.60 C 172.93 265.20 172.56 267.88 171.17 270.17 C 170.81 271.13 169.71 272.13 170.24 273.23 C 172.08 274.56 173.98 275.82 175.85 277.12 C 177.78 275.60 179.81 274.21 181.95 273.00 C 179.67 269.98 178.48 266.37 178.20 262.62 C 176.55 262.60 174.91 262.60 173.26 262.60 M 254.65 264.21 C 254.60 266.66 255.05 269.24 256.89 271.03 C 262.05 276.58 268.14 281.74 275.57 283.83 C 275.59 282.70 275.61 281.56 275.64 280.43 C 272.15 278.75 269.95 275.46 266.90 273.22 C 262.39 270.67 260.13 265.15 254.65 264.21 M 127.56 285.54 C 121.81 293.91 120.67 305.15 124.46 314.55 C 127.68 322.82 134.71 329.24 142.90 332.46 C 143.65 330.54 144.45 328.66 145.33 326.81 C 139.44 324.44 134.09 320.35 131.27 314.54 C 126.66 305.89 127.72 294.50 134.04 286.97 C 142.46 276.22 159.64 274.66 169.90 283.67 C 171.15 282.09 172.44 280.55 173.81 279.07 C 169.34 275.29 163.84 272.71 158.02 271.95 C 146.35 270.00 134.03 275.71 127.56 285.54 M 168.24 293.20 C 165.46 301.06 166.52 309.83 170.12 317.25 C 172.49 316.33 173.15 313.68 174.35 311.71 C 171.34 303.60 172.71 293.97 178.26 287.27 C 184.29 279.36 195.35 275.89 204.85 278.71 C 212.46 280.81 218.85 286.70 221.56 294.11 C 223.20 298.24 223.09 302.81 222.69 307.17 C 221.26 317.14 212.98 325.66 203.11 327.53 C 195.69 329.17 187.48 327.12 181.73 322.12 C 180.31 323.66 178.97 325.28 177.76 327.00 C 185.66 333.34 196.36 335.60 206.16 333.11 C 214.60 330.82 222.00 324.84 225.86 316.96 C 229.38 310.44 229.95 302.62 228.39 295.46 C 225.42 282.88 213.93 272.96 201.08 271.75 C 186.89 270.06 172.51 279.63 168.24 293.20 M 287.22 275.14 C 284.70 276.37 285.09 279.42 285.38 281.72 C 287.47 284.33 291.97 285.10 293.89 281.87 C 297.02 277.92 291.17 272.16 287.22 275.14 M 60.51 282.48 C 65.75 290.89 68.31 300.67 68.58 310.53 C 69.26 310.18 70.62 309.48 71.30 309.13 C 70.62 298.54 67.71 288.00 62.09 278.94 C 60.69 279.53 59.32 280.97 60.51 282.48 M 136.02 288.99 C 131.35 294.45 130.26 302.25 131.95 309.08 C 134.09 315.88 139.40 322.35 146.64 323.87 C 150.72 317.06 157.29 312.19 164.60 309.27 C 162.21 301.13 165.49 293.08 167.85 285.42 C 163.98 282.93 159.69 280.82 155.05 280.46 C 147.84 280.11 140.52 283.32 136.02 288.99 M 183.22 286.00 C 187.33 293.11 188.05 301.42 187.26 309.45 C 194.47 312.12 200.62 317.28 204.73 323.74 C 208.63 323.66 211.55 320.71 214.15 318.16 C 219.55 312.82 221.77 304.42 219.59 297.13 C 217.73 289.45 211.36 283.20 203.70 281.29 C 196.65 279.02 188.79 281.37 183.22 286.00 M 177.39 294.10 C 179.13 300.62 179.34 307.86 176.17 313.99 C 172.82 321.22 165.75 326.31 157.97 327.75 C 156.67 329.63 155.51 331.59 154.47 333.63 C 157.74 334.42 161.08 333.44 164.17 332.37 C 174.23 328.71 182.03 319.60 184.17 309.13 C 185.72 302.01 184.48 294.44 181.10 288.03 C 179.72 289.91 177.78 291.73 177.39 294.10 M 144.48 342.98 C 144.82 358.47 158.36 372.35 173.90 372.80 C 183.69 373.62 193.48 369.11 199.69 361.60 C 205.74 354.68 207.94 345.03 206.67 336.04 C 204.59 336.29 202.52 336.54 200.45 336.79 C 201.03 340.54 201.09 344.43 200.09 348.11 C 197.49 358.77 187.03 366.96 176.03 366.65 C 168.50 367.01 161.06 363.39 156.33 357.60 C 150.89 351.14 149.15 341.80 151.83 333.81 C 154.09 326.37 160.24 320.48 167.41 317.72 C 166.63 315.86 165.89 313.99 165.19 312.11 C 152.62 316.60 143.78 329.62 144.48 342.98 M 186.47 312.10 C 185.68 313.94 184.89 315.79 184.10 317.64 C 188.26 319.51 192.24 321.90 195.22 325.42 C 197.46 325.40 199.71 325.38 201.95 325.30 C 199.14 318.86 192.70 314.82 186.47 312.10 M 174.66 329.74 C 171.01 332.17 167.23 334.51 162.97 335.69 C 159.86 336.80 156.30 336.04 153.40 337.80 C 153.43 341.53 153.06 345.41 154.56 348.94 C 157.72 357.56 166.51 364.56 175.97 363.78 C 189.50 364.68 201.10 350.10 197.64 337.11 C 191.05 336.57 184.33 335.03 178.91 331.06 C 177.65 330.38 176.17 328.72 174.66 329.74 Z" />
<path fill="#fffefa" opacity="1.00" d=" M 172.98 50.86 C 174.65 50.59 176.41 50.48 178.07 50.88 C 178.85 51.99 178.52 53.46 178.73 54.73 C 176.58 54.76 174.43 54.77 172.28 54.73 C 172.47 53.44 172.23 52.00 172.98 50.86 Z" />
<path fill="#fffefa" opacity="1.00" d=" M 171.05 57.37 C 174.16 57.35 177.28 57.35 180.39 57.41 C 180.34 119.12 180.37 180.83 180.38 242.54 C 177.25 242.67 174.12 242.66 170.99 242.60 C 171.00 180.86 170.88 119.11 171.05 57.37 Z" />
<path fill="#fffefa" opacity="1.00" d=" M 126.31 74.70 C 126.30 71.35 126.29 68.00 126.37 64.66 C 136.29 64.66 146.21 64.64 156.13 64.67 C 156.14 68.72 156.11 72.77 156.14 76.82 C 160.27 77.05 164.47 76.38 168.52 77.38 C 168.27 89.78 168.48 102.17 168.42 114.57 C 164.29 114.60 160.16 114.56 156.04 114.64 C 156.17 118.57 156.09 122.51 156.19 126.45 C 146.20 126.68 136.21 126.53 126.22 126.53 C 126.33 123.19 126.33 119.85 126.32 116.51 C 130.40 116.53 134.48 116.52 138.55 116.54 C 138.50 111.57 138.47 106.60 138.55 101.63 C 134.30 101.61 130.06 101.67 125.81 101.56 C 125.88 97.58 125.79 93.59 125.91 89.61 C 130.12 89.59 134.32 89.59 138.53 89.59 C 138.48 84.63 138.53 79.67 138.51 74.71 C 134.44 74.71 130.37 74.71 126.31 74.70 Z" />
<path fill="#fffefa" opacity="1.00" d=" M 183.41 171.43 C 225.52 137.67 267.58 103.82 309.85 70.26 C 310.84 71.59 311.87 72.90 312.92 74.20 C 306.97 78.74 301.37 83.73 295.34 88.16 C 296.61 89.61 297.78 91.15 298.78 92.80 C 297.55 93.72 296.35 94.68 295.17 95.67 C 293.92 94.14 292.64 92.64 291.22 91.26 C 282.82 98.58 273.81 105.18 265.25 112.31 C 265.61 114.15 267.39 115.32 268.40 116.83 C 267.21 117.83 266.03 118.83 264.85 119.83 C 263.55 118.38 262.32 116.86 261.12 115.33 C 246.27 127.75 230.79 139.41 215.89 151.76 C 217.09 153.10 218.23 154.50 219.28 155.97 C 217.92 156.87 216.83 158.39 215.18 158.74 C 213.59 158.17 213.10 156.17 212.05 154.99 C 202.01 161.94 192.92 170.25 183.12 177.56 C 183.22 175.53 182.86 173.41 183.41 171.43 Z" />
<path fill="#fffefa" opacity="1.00" d=" M 49.76 84.32 C 55.39 86.82 60.41 90.46 65.40 94.02 C 95.67 117.64 125.99 141.19 156.24 164.83 C 160.31 167.89 164.16 171.22 168.36 174.10 C 168.37 175.64 168.35 177.19 168.33 178.74 C 154.67 167.80 141.08 156.75 126.75 146.69 C 139.65 158.59 153.83 169.07 166.85 180.81 C 165.91 181.45 164.97 182.10 164.03 182.75 C 132.41 156.01 100.46 129.65 68.71 103.05 C 61.93 97.31 54.87 91.68 49.76 84.32 Z" />
<path fill="#fffefa" opacity="1.00" d=" M 268.05 113.11 C 275.89 107.02 283.69 100.85 291.37 94.55 C 292.00 95.38 292.63 96.21 293.27 97.05 C 285.77 103.13 278.07 108.98 270.72 115.25 C 269.79 114.58 268.90 113.87 268.05 113.11 Z" />
<path fill="#fffefa" opacity="1.00" d=" M 219.19 152.01 C 233.30 141.11 247.06 129.76 261.14 118.83 C 261.73 119.64 262.34 120.47 262.93 121.29 C 248.83 132.23 234.88 143.36 221.04 154.63 C 220.58 153.97 219.65 152.66 219.19 152.01 Z" />
<path fill="#fffefa" opacity="1.00" d=" M 184.06 180.08 C 193.18 172.74 202.31 165.41 211.39 158.02 C 211.90 158.63 212.94 159.83 213.45 160.44 C 204.47 167.86 195.25 174.99 186.28 182.43 C 185.22 183.28 184.04 183.98 182.91 184.72 C 183.32 183.24 182.58 181.11 184.06 180.08 Z" />
<path fill="#fffefa" opacity="1.00" d=" M 164.00 185.95 C 165.33 184.74 166.84 183.76 168.39 182.85 C 168.34 187.27 168.61 191.70 168.30 196.11 C 157.72 206.54 145.37 217.36 142.19 232.62 C 130.22 239.70 119.82 249.15 110.74 259.62 C 101.67 270.29 94.95 282.61 87.66 294.49 C 84.24 300.25 79.42 305.11 73.65 308.52 C 72.74 297.50 69.77 286.37 63.33 277.24 C 70.50 269.34 81.01 266.29 89.83 260.80 C 93.93 257.79 98.25 254.68 100.70 250.09 C 103.80 251.39 107.50 252.22 110.60 250.43 C 115.99 247.16 119.69 241.36 120.67 235.15 C 121.58 230.32 120.92 225.38 120.01 220.60 C 125.99 215.88 132.71 212.16 138.53 207.23 C 140.28 211.42 135.20 213.46 132.42 215.39 C 129.45 216.62 127.88 219.68 127.54 222.73 C 128.30 224.95 128.89 227.65 131.23 228.76 C 134.56 230.94 139.89 228.87 140.56 224.84 C 141.17 222.94 140.05 221.07 139.51 219.31 C 145.04 215.59 148.83 207.98 144.85 201.78 C 151.07 196.30 157.71 191.34 164.00 185.95 Z" />
<path fill="#fffefa" opacity="1.00" d=" M 183.97 191.03 C 182.37 190.02 183.40 188.27 184.26 187.15 C 203.45 202.58 222.34 218.38 241.57 233.75 C 239.24 235.62 237.32 237.92 235.84 240.51 C 218.55 226.70 201.44 212.66 184.24 198.72 C 182.43 197.71 183.37 195.41 183.21 193.77 C 198.53 205.81 213.38 218.49 228.86 230.32 L 230.75 230.04 C 229.00 227.52 226.38 225.84 224.05 223.91 C 210.73 212.91 197.30 202.02 183.97 191.03 Z" />
<path fill="#fffefa" opacity="1.00" d=" M 135.89 196.89 C 136.29 194.73 140.37 195.96 139.48 198.01 C 138.35 198.77 136.41 198.13 135.89 196.89 Z" />
<path fill="#fffefa" opacity="1.00" d=" M 125.19 207.96 C 127.87 204.51 130.34 200.42 134.95 199.37 C 139.10 199.85 143.65 202.36 144.22 206.90 C 144.35 212.18 140.21 216.33 135.92 218.78 C 137.01 220.55 139.32 222.60 137.81 224.80 C 137.21 226.54 135.33 227.04 133.81 227.68 C 131.14 226.23 129.36 223.47 130.54 220.38 C 133.36 216.07 140.00 215.29 141.53 210.01 C 141.50 206.70 138.87 202.17 134.95 203.16 C 131.92 203.57 130.34 206.59 128.87 208.93 C 127.64 208.59 126.42 208.27 125.19 207.96 Z" />
<path fill="#fffefa" opacity="1.00" d=" M 262.90 240.01 C 260.48 237.68 260.71 233.20 264.43 232.41 C 265.38 232.79 266.35 233.16 267.32 233.52 C 268.97 235.54 269.19 238.42 267.42 240.46 C 262.82 246.55 257.77 252.36 254.09 259.09 C 252.66 261.78 251.56 264.97 252.48 268.02 C 253.82 273.13 258.12 276.63 262.03 279.85 C 266.63 283.46 272.07 287.22 278.25 286.22 C 278.61 284.70 277.83 282.57 279.34 281.54 C 280.57 280.74 281.94 281.41 283.18 281.76 C 283.97 283.77 285.18 285.98 284.19 288.17 C 283.18 291.66 278.93 292.06 275.90 291.72 C 267.28 291.04 260.52 285.07 254.16 279.80 C 251.04 276.99 247.36 274.26 246.08 270.07 C 244.69 265.84 246.24 261.23 248.91 257.87 C 253.58 251.92 258.24 245.97 262.90 240.01 Z" />
<path fill="#fffefa" opacity="1.00" d=" M 239.09 251.87 C 233.72 243.40 243.59 231.20 253.00 234.63 C 248.64 240.59 244.01 246.38 239.09 251.87 Z" />
<path fill="#fffefa" opacity="1.00" d=" M 138.16 238.12 C 139.37 237.37 140.59 236.65 141.85 236.01 C 142.83 237.45 143.84 238.87 144.85 240.29 C 139.53 245.24 133.05 249.11 128.84 255.14 C 126.95 257.88 126.08 261.12 125.29 264.32 C 122.09 262.60 123.34 258.35 124.93 255.92 C 129.00 250.19 134.79 246.02 140.04 241.44 C 139.41 240.33 138.79 239.22 138.16 238.12 Z" />
<path fill="#fffefa" opacity="1.00" d=" M 245.28 248.86 C 247.28 246.31 249.24 243.71 251.46 241.33 C 252.81 242.41 254.19 243.47 255.57 244.53 C 253.57 247.12 251.55 249.70 249.43 252.20 C 248.04 251.10 246.66 249.97 245.28 248.86 Z" />
<path fill="#fffefa" opacity="1.00" d=" M 170.96 245.19 C 172.10 245.22 173.24 245.25 174.39 245.29 C 174.40 246.69 174.41 248.10 174.43 249.51 C 173.28 249.56 172.14 249.62 171.00 249.68 C 170.98 248.18 170.97 246.68 170.96 245.19 Z" />
<path fill="#fffefa" opacity="1.00" d=" M 176.90 245.24 C 178.05 245.23 179.21 245.22 180.38 245.22 C 180.36 246.65 180.34 248.10 180.33 249.54 C 179.24 249.59 178.16 249.63 177.08 249.69 C 177.01 248.20 176.95 246.72 176.90 245.24 Z" />
<path fill="#fffefa" opacity="1.00" d=" M 256.27 261.07 C 258.62 256.71 261.04 252.13 265.06 249.07 C 266.07 249.94 267.02 250.88 267.90 251.88 C 268.41 254.51 265.70 255.67 264.30 257.38 C 266.41 256.91 268.08 255.44 270.12 254.81 C 272.85 255.62 274.60 257.98 276.16 260.20 C 275.78 261.88 274.94 263.36 273.96 264.76 C 275.39 263.72 276.82 262.70 278.25 261.66 C 280.54 262.32 282.42 263.87 283.78 265.80 C 284.00 267.69 282.98 269.36 282.30 271.04 C 283.89 270.36 285.47 269.63 287.12 269.08 C 290.01 270.62 286.72 272.25 285.33 273.26 C 283.49 274.13 282.76 276.05 282.08 277.83 C 278.39 279.37 275.02 276.68 272.42 274.38 C 273.78 273.48 275.15 272.58 276.53 271.69 C 271.43 272.67 266.66 270.23 263.31 266.56 C 264.81 265.25 266.30 263.93 267.78 262.61 C 263.92 263.80 259.33 264.28 256.27 261.07 Z" />
<path fill="#fffefa" opacity="1.00" d=" M 166.45 252.18 C 172.62 252.17 178.79 252.22 184.97 252.18 C 184.99 254.79 185.01 257.39 185.03 260.00 C 178.83 260.04 172.63 260.10 166.44 259.99 C 166.44 257.38 166.44 254.78 166.45 252.18 Z" />
<path fill="#fffefa" opacity="1.00" d=" M 173.26 262.60 C 174.91 262.60 176.55 262.60 178.20 262.62 C 178.48 266.37 179.67 269.98 181.95 273.00 C 179.81 274.21 177.78 275.60 175.85 277.12 C 173.98 275.82 172.08 274.56 170.24 273.23 C 169.71 272.13 170.81 271.13 171.17 270.17 C 172.56 267.88 172.93 265.20 173.26 262.60 Z" />
<path fill="#de3530" opacity="1.00" d=" M 254.65 264.21 C 260.13 265.15 262.39 270.67 266.90 273.22 C 269.95 275.46 272.15 278.75 275.64 280.43 C 275.61 281.56 275.59 282.70 275.57 283.83 C 268.14 281.74 262.05 276.58 256.89 271.03 C 255.05 269.24 254.60 266.66 254.65 264.21 Z" />
<path fill="#fffefa" opacity="1.00" d=" M 127.56 285.54 C 134.03 275.71 146.35 270.00 158.02 271.95 C 163.84 272.71 169.34 275.29 173.81 279.07 C 172.44 280.55 171.15 282.09 169.90 283.67 C 159.64 274.66 142.46 276.22 134.04 286.97 C 127.72 294.50 126.66 305.89 131.27 314.54 C 134.09 320.35 139.44 324.44 145.33 326.81 C 144.45 328.66 143.65 330.54 142.90 332.46 C 134.71 329.24 127.68 322.82 124.46 314.55 C 120.67 305.15 121.81 293.91 127.56 285.54 Z" />
<path fill="#fffefa" opacity="1.00" d=" M 168.24 293.20 C 172.51 279.63 186.89 270.06 201.08 271.75 C 213.93 272.96 225.42 282.88 228.39 295.46 C 229.95 302.62 229.38 310.44 225.86 316.96 C 222.00 324.84 214.60 330.82 206.16 333.11 C 196.36 335.60 185.66 333.34 177.76 327.00 C 178.97 325.28 180.31 323.66 181.73 322.12 C 187.48 327.12 195.69 329.17 203.11 327.53 C 212.98 325.66 221.26 317.14 222.69 307.17 C 223.09 302.81 223.20 298.24 221.56 294.11 C 218.85 286.70 212.46 280.81 204.85 278.71 C 195.35 275.89 184.29 279.36 178.26 287.27 C 172.71 293.97 171.34 303.60 174.35 311.71 C 173.15 313.68 172.49 316.33 170.12 317.25 C 166.52 309.83 165.46 301.06 168.24 293.20 Z" />
<path fill="#fffefa" opacity="1.00" d=" M 287.22 275.14 C 291.17 272.16 297.02 277.92 293.89 281.87 C 291.97 285.10 287.47 284.33 285.38 281.72 C 285.09 279.42 284.70 276.37 287.22 275.14 Z" />
<path fill="#fffefa" opacity="1.00" d=" M 60.51 282.48 C 59.32 280.97 60.69 279.53 62.09 278.94 C 67.71 288.00 70.62 298.54 71.30 309.13 C 70.62 309.48 69.26 310.18 68.58 310.53 C 68.31 300.67 65.75 290.89 60.51 282.48 Z" />
<path fill="#de3530" opacity="1.00" d=" M 136.02 288.99 C 140.52 283.32 147.84 280.11 155.05 280.46 C 159.69 280.82 163.98 282.93 167.85 285.42 C 165.49 293.08 162.21 301.13 164.60 309.27 C 157.29 312.19 150.72 317.06 146.64 323.87 C 139.40 322.35 134.09 315.88 131.95 309.08 C 130.26 302.25 131.35 294.45 136.02 288.99 Z" />
<path fill="#de3530" opacity="1.00" d=" M 183.22 286.00 C 188.79 281.37 196.65 279.02 203.70 281.29 C 211.36 283.20 217.73 289.45 219.59 297.13 C 221.77 304.42 219.55 312.82 214.15 318.16 C 211.55 320.71 208.63 323.66 204.73 323.74 C 200.62 317.28 194.47 312.12 187.26 309.45 C 188.05 301.42 187.33 293.11 183.22 286.00 Z" />
<path fill="#fffefa" opacity="1.00" d=" M 177.39 294.10 C 177.78 291.73 179.72 289.91 181.10 288.03 C 184.48 294.44 185.72 302.01 184.17 309.13 C 182.03 319.60 174.23 328.71 164.17 332.37 C 161.08 333.44 157.74 334.42 154.47 333.63 C 155.51 331.59 156.67 329.63 157.97 327.75 C 165.75 326.31 172.82 321.22 176.17 313.99 C 179.34 307.86 179.13 300.62 177.39 294.10 Z" />
<path fill="#fffefa" opacity="1.00" d=" M 144.48 342.98 C 143.78 329.62 152.62 316.60 165.19 312.11 C 165.89 313.99 166.63 315.86 167.41 317.72 C 160.24 320.48 154.09 326.37 151.83 333.81 C 149.15 341.80 150.89 351.14 156.33 357.60 C 161.06 363.39 168.50 367.01 176.03 366.65 C 187.03 366.96 197.49 358.77 200.09 348.11 C 201.09 344.43 201.03 340.54 200.45 336.79 C 202.52 336.54 204.59 336.29 206.67 336.04 C 207.94 345.03 205.74 354.68 199.69 361.60 C 193.48 369.11 183.69 373.62 173.90 372.80 C 158.36 372.35 144.82 358.47 144.48 342.98 Z" />
<path fill="#fffefa" opacity="1.00" d=" M 186.47 312.10 C 192.70 314.82 199.14 318.86 201.95 325.30 C 199.71 325.38 197.46 325.40 195.22 325.42 C 192.24 321.90 188.26 319.51 184.10 317.64 C 184.89 315.79 185.68 313.94 186.47 312.10 Z" />
<path fill="#de3530" opacity="1.00" d=" M 174.66 329.74 C 176.17 328.72 177.65 330.38 178.91 331.06 C 184.33 335.03 191.05 336.57 197.64 337.11 C 201.10 350.10 189.50 364.68 175.97 363.78 C 166.51 364.56 157.72 357.56 154.56 348.94 C 153.06 345.41 153.43 341.53 153.40 337.80 C 156.30 336.04 159.86 336.80 162.97 335.69 C 167.23 334.51 171.01 332.17 174.66 329.74 Z" />
</svg>
