<?xml version="1.0" encoding="UTF-8" standalone="no"?><!DOCTYPE svg PUBLIC "-//W3C//DTD SVG 1.1//EN" "http://www.w3.org/Graphics/SVG/1.1/DTD/svg11.dtd"><svg width="100%" height="100%" viewBox="0 0 600 426" version="1.1" xmlns="http://www.w3.org/2000/svg" xmlns:xlink="http://www.w3.org/1999/xlink" xml:space="preserve" xmlns:serif="http://www.serif.com/" style="fill-rule:evenodd;clip-rule:evenodd;stroke-linejoin:round;stroke-miterlimit:2;"><g><path d="M469.639,218.006c0.775,0.178 1.286,0.408 1.789,0.391c2.426,-0.085 4.883,-0.025 7.268,-0.407c5.959,-0.953 9.411,-5.447 9.075,-11.471c-0.094,-1.682 -0.794,-3.067 -2.282,-3.811c-1.122,-0.562 -2.396,-1.019 -3.633,-1.105c-2.489,-0.173 -4.997,-0.035 -7.498,-0.077c-0.977,-0.016 -1.509,0.364 -1.693,1.327c-0.278,1.457 -0.613,2.904 -0.901,4.358c-0.697,3.503 -1.38,7.009 -2.125,10.795m19.067,7.511c0.951,1.393 1.803,2.521 2.527,3.725c1.778,2.959 2.361,6.315 3.031,9.628c0.83,4.107 1.596,8.227 2.385,12.342c0.063,0.331 0.098,0.67 0.117,1.007c0.102,1.815 -0.516,2.682 -2.317,2.928c-3.352,0.46 -6.716,0.678 -10.077,0.022c-1.323,-0.258 -2.193,-0.948 -2.437,-2.354c-0.473,-2.729 -1.002,-5.448 -1.487,-8.174c-0.45,-2.529 -0.819,-5.073 -1.328,-7.59c-0.241,-1.184 -0.663,-2.343 -1.114,-3.469c-1.126,-2.82 -3.338,-4.265 -6.288,-4.335c-5.179,-0.123 -4.182,-0.356 -5.055,3.911c-1.26,6.157 -2.461,12.326 -3.7,18.488c-0.537,2.671 -1.376,3.272 -4.077,3.607c-2.499,0.31 -4.947,0.417 -7.452,-0.005c-2.27,-0.382 -3.022,-1.185 -2.583,-3.375c3.297,-16.442 6.598,-32.883 9.906,-49.324c0.688,-3.418 0.698,-3.47 -2.752,-3.409c-2.698,0.048 -5.394,0.276 -8.093,0.345c-1.021,0.027 -1.403,0.462 -1.587,1.419c-0.906,4.711 -1.875,9.411 -2.814,14.117c-2.459,12.327 -4.908,24.656 -7.375,36.982c-0.429,2.141 -1.43,3 -3.581,3.205c-2.547,0.244 -5.06,0.539 -7.654,0.072c-2.67,-0.479 -3.323,-1.11 -2.801,-3.703c3.292,-16.366 6.581,-32.731 9.866,-49.097c0.582,-2.895 0.578,-2.819 -2.434,-2.618c-2.158,0.143 -4.34,0.148 -6.499,0.01c-1.662,-0.105 -2.601,0.493 -3.332,1.97c-1.895,3.821 -3.857,7.612 -5.912,11.348c-5.515,10.024 -10.93,20.108 -16.685,29.993c-7.391,12.695 -14.88,25.342 -22.695,37.779c-6.374,10.142 -13.182,20.02 -19.99,29.881c-8.582,12.435 -17.93,24.295 -27.795,35.734c-5.304,6.149 -10.756,12.177 -16.322,18.09c-4.592,4.879 -9.355,9.609 -14.212,14.226c-8.348,7.938 -17.143,15.353 -26.559,22.018c-6.809,4.818 -13.85,9.248 -21.279,13.04c-9.328,4.763 -19.1,8.238 -29.452,10.026c-5.078,0.877 -10.185,1.425 -15.324,1.127c-6.86,-0.4 -13.385,-1.948 -18.804,-6.552c-4.363,-3.709 -7.204,-8.398 -8.74,-13.881c-0.397,-1.42 -0.651,-2.894 -0.8,-4.361c-0.048,-0.474 0.449,-1.005 0.697,-1.509c0.472,0.312 1.003,0.566 1.394,0.959c0.264,0.266 0.367,0.717 0.48,1.104c1.567,5.348 5.146,9.158 9.563,12.24c5.661,3.95 12.04,5.774 18.911,5.892c8.951,0.153 17.649,-1.493 26.241,-3.814c14,-3.783 26.39,-10.774 38.034,-19.212c6.476,-4.694 12.634,-9.785 18.392,-15.342c4.383,-4.229 8.914,-8.335 13,-12.838c5.862,-6.462 11.538,-13.109 17.008,-19.907c8.54,-10.608 16.351,-21.764 23.645,-33.261c5.872,-9.256 11.591,-18.618 17.107,-28.091c8.207,-14.095 16.255,-28.285 24.223,-42.515c7.505,-13.402 14.822,-26.91 22.215,-40.375c0.508,-0.927 0.952,-1.888 1.477,-2.934c-1.37,-0.639 -2.589,-0.379 -3.754,-0.293c-2.284,0.169 -4.564,0.437 -6.838,0.718c-4.282,0.529 -8.59,0.921 -12.826,1.698c-3.969,0.729 -7.769,2.163 -10.388,5.461c-1.546,1.949 -2.759,4.169 -4.05,6.31c-0.734,1.215 -1.29,2.535 -1.985,3.776c-0.658,1.174 -0.799,1.163 -2.175,0.095c1.592,-4.231 3.649,-8.252 6.281,-11.953c1.132,-1.592 2.476,-3.041 3.802,-4.483c2.241,-2.434 5.054,-3.698 8.329,-4.232c6.027,-0.981 12.099,-1.368 18.179,-1.729c2.229,-0.132 4.455,-0.327 6.685,-0.381c1.384,-0.034 2.206,-0.618 2.863,-1.826c3.106,-5.705 6.229,-11.403 9.453,-17.042c6.213,-10.87 12.296,-21.823 18.809,-32.513c8.065,-13.235 16.428,-26.291 24.821,-39.322c6.607,-10.258 13.987,-19.966 22.047,-29.13c7.354,-8.364 15.359,-16.045 24.702,-22.206c5.058,-3.336 10.37,-6.129 16.413,-7.275c4.62,-0.876 9.161,-0.809 13.569,1.007c2.028,0.835 3.834,1.995 5.207,3.759c1.053,1.354 1.498,2.886 1.284,4.566c-0.544,4.289 -1.163,8.568 -1.705,12.857c-0.288,2.276 -0.503,4.563 -0.702,6.85c-0.127,1.46 -0.634,2.08 -1.891,2.125c-1.25,0.044 -1.767,-0.607 -1.619,-1.894c0.24,-2.078 0.525,-4.159 0.604,-6.245c0.152,-4.087 -1.897,-6.945 -5.353,-8.875c-2.21,-1.235 -4.632,-1.77 -7.137,-2.125c-7.335,-1.036 -14.26,0.413 -20.916,3.373c-4.239,1.885 -7.941,4.644 -11.402,7.707c-6.835,6.044 -12.698,12.937 -17.865,20.445c-5.539,8.048 -10.24,16.588 -14.878,25.166c-4.25,7.86 -8.51,15.715 -12.72,23.595c-4.241,7.939 -8.475,15.884 -12.626,23.87c-5.215,10.033 -10.346,20.11 -15.506,30.171c-0.388,0.759 -0.721,1.548 -1.206,2.597c1.028,0.141 1.739,0.331 2.446,0.317c2.163,-0.042 4.325,-0.196 6.488,-0.238c1.107,-0.02 1.504,-0.592 1.728,-1.585c0.594,-2.63 1.15,-3.031 3.768,-3.41c2.639,-0.383 5.256,-0.355 7.886,0.053c2.232,0.347 2.684,0.942 2.37,3.239c-0.061,0.447 -0.009,0.91 -0.009,1.444c0.576,0.096 1.031,0.233 1.487,0.235c3.116,0.021 6.233,-0.01 9.349,0.024c1.018,0.013 1.644,-0.328 1.972,-1.337c0.861,-2.643 2.821,-3.582 5.484,-3.563c6.165,0.046 12.333,-0.081 18.496,0.047c4.427,0.092 8.786,0.748 12.608,3.269c3.859,2.544 5.733,6.146 5.76,10.779c0.032,5.724 -1.65,10.791 -5.53,15.054c-1.984,2.178 -4.349,3.849 -7.034,5.067c-0.483,0.218 -0.951,0.473 -1.588,0.793" style="fill:#00a9dc;fill-rule:nonzero;"/><path d="M162.359,153.881c-0.024,0.25 -0.072,0.391 -0.043,0.515c0.078,0.327 0.18,0.651 0.288,0.971c1.161,3.442 1.36,6.936 0.016,10.329c-1.691,4.27 -3.633,8.44 -5.414,12.675c-1.624,3.86 -3.193,7.745 -4.746,11.635c-0.23,0.574 -0.239,1.234 -0.387,2.059c1.333,-0.598 2.341,-1.103 3.389,-1.508c2.261,-0.874 4.698,-1.42 6.789,-2.588c9.416,-5.258 17.62,-12.083 24.838,-20.068c2.262,-2.502 4.297,-5.232 5.177,-8.619c0.777,-2.993 0.031,-5.498 -2.364,-7.446c-2.324,-1.891 -5.053,-2.875 -8.008,-3.124c-4.944,-0.417 -9.703,0.436 -14.231,2.458c-1.831,0.818 -3.8,1.403 -5.304,2.711m-10.24,2.515c-0.763,0.205 -1.5,0.272 -2.103,0.591c-1.911,1.015 -3.793,2.09 -5.648,3.206c-2.668,1.603 -5.294,3.276 -7.956,4.891c-0.629,0.381 -1.325,0.653 -2.058,1.007c-1.488,-1.042 -2.303,-2.29 -2.414,-4.182c-0.26,-4.397 1.537,-7.699 4.884,-10.366c3.496,-2.785 7.489,-4.618 11.642,-6.101c8.702,-3.106 17.624,-5.435 26.862,-6.039c6.413,-0.417 12.874,-0.355 19.207,1.103c3.922,0.903 7.179,2.863 9.177,6.474c1.794,3.244 2.228,6.776 1.811,10.424c-0.622,5.433 -3.139,10.025 -6.432,14.25c-3.179,4.08 -6.809,7.721 -10.973,10.797c-5.282,3.902 -10.608,7.745 -15.911,11.62c-0.745,0.544 -1.461,1.126 -2.573,1.987c1.238,0.404 2.021,0.715 2.83,0.915c6.177,1.526 12.37,3.003 18.306,5.333c3.782,1.485 7.126,3.621 9.338,7.183c1.237,1.993 1.814,4.147 1.989,6.514c0.555,7.509 -3.122,12.948 -8.383,17.638c-5.169,4.606 -11.241,7.775 -17.498,10.563c-9.783,4.357 -19.916,7.719 -30.394,9.971c-5.279,1.135 -10.579,2.183 -16.013,2.296c-2.022,0.042 -4.04,0.328 -6.06,0.332c-3.675,0.008 -7.243,-0.655 -10.713,-1.911c-2.235,-0.809 -4.069,-2.134 -5.595,-3.905c-2.033,-2.364 -2.218,-5.181 -1.675,-8.062c0.253,-1.34 0.322,-2.823 1.511,-4.068c2.035,1.081 4.006,2.246 6.074,3.2c3.436,1.587 6.905,3.114 10.416,4.527c3.619,1.457 7.349,0.873 11.023,0.194c6.007,-1.111 11.819,-2.937 17.542,-5.057c8.706,-3.226 17.319,-6.661 25.367,-11.351c3.456,-2.015 6.785,-4.22 9.378,-7.35c0.216,-0.261 0.447,-0.514 0.632,-0.795c2.398,-3.665 2.374,-6.8 -1.317,-9.576c-1.44,-1.083 -3.087,-1.958 -4.754,-2.662c-6.812,-2.873 -13.993,-3.731 -21.279,-3.066c-10.246,0.935 -18.257,5.881 -24.099,14.356c-3.3,4.788 -5.565,10.053 -7.323,15.562c-0.062,0.193 -0.079,0.4 -0.136,0.594c-0.734,2.514 -0.904,2.593 -3.597,2.079c-1.856,-0.354 -3.721,-0.663 -5.588,-0.955c-2.613,-0.41 -2.923,-0.586 -2.569,-3.255c0.37,-2.799 0.948,-5.599 1.734,-8.313c2.091,-7.21 5.763,-13.692 9.523,-20.133c5.903,-10.113 11.778,-20.242 17.547,-30.432c2.738,-4.834 4.994,-9.907 6.26,-15.364c0.34,-1.467 0.37,-2.927 0.008,-4.664" style="fill:#00a9dc;fill-rule:nonzero;"/><path d="M249.752,236.788c0.579,-3.287 1.192,-7.152 1.948,-10.989c2.078,-10.546 4.222,-21.079 6.326,-31.621c0.573,-2.872 1.05,-3.306 3.929,-3.751c2.432,-0.376 4.85,-0.413 7.275,-0.01c0.467,0.078 0.942,0.139 1.389,0.283c1.479,0.477 1.848,1.058 1.555,2.566c-1.067,5.505 -2.155,11.006 -3.245,16.507c-1.496,7.556 -3.056,15.1 -4.463,22.672c-0.305,1.635 -0.308,3.403 -0.053,5.047c0.674,4.352 3.676,6.793 8.364,7.089c7.822,0.492 13.721,-3.305 16.177,-10.793c1.111,-3.386 1.7,-6.951 2.415,-10.457c1.97,-9.668 3.883,-19.349 5.822,-29.023c0.079,-0.397 0.217,-0.783 0.284,-1.183c0.248,-1.456 1.143,-2.277 2.55,-2.526c3.021,-0.534 6.054,-0.701 9.081,-0.052c1.973,0.423 2.44,1.173 2.046,3.158c-2.517,12.658 -4.982,25.327 -7.571,37.97c-1.156,5.643 -3.327,10.885 -7.228,15.243c-4.315,4.82 -9.77,7.623 -16.115,8.686c-2.258,0.378 -4.558,0.815 -6.825,0.753c-4.652,-0.128 -9.312,-0.451 -13.67,-2.405c-5.453,-2.447 -8.588,-6.622 -9.443,-12.519c-0.194,-1.333 -0.319,-2.676 -0.548,-4.645" style="fill:#00a9dc;fill-rule:nonzero;"/><path d="M99.454,215.505c-11.315,12.026 -25.049,19.804 -41.034,23.727c-15.024,3.687 -33.414,2.374 -42.482,-0.858c0.573,-2.237 1.146,-4.507 1.738,-6.774c0.966,-3.698 0.681,-2.94 3.892,-2.264c16.312,3.436 32.166,2.146 47.469,-4.629c6.097,-2.699 11.745,-6.15 16.82,-10.508c1.816,-1.558 1.873,-1.69 0.625,-3.665c-6.489,-10.264 -14.807,-18.783 -24.658,-25.842c-10.798,-7.736 -22.706,-13.07 -35.505,-16.494c-1.902,-0.509 -1.681,-0.612 -1.036,-3.313c0.356,-1.491 0.734,-2.983 1.121,-4.466c0.649,-2.493 0.621,-2.8 2.568,-2.188c4.774,1.501 9.596,2.898 14.253,4.711c13.065,5.081 24.82,12.354 35.136,21.866c8.175,7.539 14.959,16.191 20.228,26.003c0.425,0.792 0.858,1.432 1.278,2.464c0.307,0.751 0.165,1.625 -0.397,2.213c-0.005,0.004 -0.011,0.011 -0.016,0.017" style="fill:#00a9dc;fill-rule:nonzero;"/><path d="M210.843,33.718c2.965,1.06 6.008,2.147 9.231,3.3c-0.146,0.647 -0.229,1.226 -0.409,1.774c-2.076,6.323 -3.518,12.779 -3.833,19.437c-0.218,4.591 -0.549,9.211 -0.278,13.785c0.764,12.863 3.826,25.228 8.859,37.093c1.11,2.615 2.307,5.194 3.532,7.757c1.099,2.296 1.22,2.333 3.755,2.029c5.053,-0.605 10.016,-1.641 14.867,-3.189c11.233,-3.586 21.104,-9.481 29.405,-17.841c2.894,-2.916 5.31,-6.308 7.937,-9.488c0.378,-0.458 0.714,-0.95 1.211,-1.616c2.855,1.846 5.604,3.624 8.561,5.534c-0.884,1.321 -1.58,2.466 -2.377,3.535c-7.439,9.975 -16.577,17.966 -27.593,23.823c-8.504,4.522 -17.511,7.491 -26.985,9.037c-4.062,0.663 -8.167,1.102 -12.31,0.936c-0.966,-0.038 -1.555,-0.263 -2.078,-1.197c-5.45,-9.725 -9.806,-19.901 -12.813,-30.643c-1.99,-7.111 -3.555,-14.318 -3.941,-21.704c-0.296,-5.67 -0.578,-11.375 -0.282,-17.035c0.429,-8.187 2.023,-16.22 4.73,-23.996c0.111,-0.316 0.242,-0.626 0.391,-0.926c0.055,-0.112 0.188,-0.187 0.42,-0.405" style="fill:#00a9dc;fill-rule:nonzero;"/><path d="M129.696,42.892c2.782,-1.639 5.557,-3.273 8.576,-5.052c7.164,12.093 10.873,25.046 11.631,38.771c1.231,22.276 -5.476,42.739 -14.92,56.325c-0.286,0.406 -0.694,1.004 -0.979,1.48c-0.429,0.647 -0.79,0.974 -1.308,1.284c-0.22,0.131 -0.465,0.222 -0.719,0.26c-0.61,0.089 -1.132,0.207 -2.296,0.049c-7.39,-1.002 -14.598,-2.704 -21.512,-5.555c-10.067,-4.154 -18.987,-10.035 -26.77,-17.659c-3.685,-3.61 -7.049,-7.487 -10.043,-11.685c-0.384,-0.538 -0.719,-1.11 -1.186,-1.835c2.828,-1.832 5.527,-3.58 8.362,-5.417c0.393,0.467 0.791,0.9 1.145,1.367c9.725,12.866 21.879,22.421 37.332,27.421c1.957,0.633 3.959,1.118 5.968,1.559c4.137,0.906 4.193,1.443 5.331,-0.527c3.777,-6.534 6.665,-13.445 8.551,-20.755c1.335,-5.174 2.163,-10.421 2.561,-15.775c1.045,-14.036 -1.651,-27.292 -7.73,-39.918c-0.586,-1.218 -1.26,-2.393 -1.882,-3.593c-0.058,-0.112 -0.043,-0.261 -0.112,-0.745" style="fill:#00a9dc;fill-rule:nonzero;"/><path d="M336.167,202.16c-0.892,4.474 -1.795,9.006 -2.752,13.808c1.043,0.071 1.758,0.158 2.475,0.16c4.943,0.013 9.887,-0 14.83,0.011c2.494,0.004 3.114,0.542 2.924,2.959c-0.138,1.738 -0.462,3.493 -0.958,5.164c-0.668,2.247 -1.697,2.878 -4.036,2.882c-5.079,0.007 -10.159,-0.003 -15.237,0.004c-2.182,0.003 -2.225,0.003 -2.666,2.106c-0.889,4.231 -1.736,8.471 -2.574,12.712c-0.088,0.447 -0.011,0.925 -0.011,1.672c1.199,0.137 2.377,0.379 3.557,0.388c5.553,0.041 11.106,0.018 16.659,0.021c0.609,0.001 1.22,0.004 1.827,0.047c0.867,0.06 1.358,0.533 1.427,1.414c0.216,2.751 -0.149,5.398 -1.388,7.895c-0.694,1.398 -1.841,1.818 -3.335,1.81c-5.214,-0.03 -10.428,0.012 -15.643,0.013c-4.808,0 -9.617,-0.014 -14.425,-0.034c-0.605,-0.003 -1.232,0.003 -1.811,-0.143c-1.668,-0.421 -2.63,-1.488 -2.494,-3.214c0.176,-2.21 0.583,-4.411 1.015,-6.591c2.623,-13.25 5.283,-26.494 7.928,-39.741c0.7,-3.509 1.36,-7.029 2.092,-10.532c0.607,-2.911 2.475,-4.436 5.441,-4.441c10.227,-0.017 20.452,-0.013 30.679,-0.001c1.978,0.002 2.549,0.568 2.527,2.545c-0.027,2.248 -0.42,4.441 -1.342,6.51c-0.604,1.357 -1.532,2.102 -3.162,2.01c-2.159,-0.124 -4.333,-0.07 -6.499,-0.021c-4.661,0.103 -9.321,0.25 -13.981,0.389c-0.263,0.007 -0.522,0.094 -1.067,0.198" style="fill:#00a9dc;fill-rule:nonzero;"/><path d="M529.412,202.184c-0.976,4.493 -2.019,8.936 -2.648,13.741c1.019,0.084 1.795,0.198 2.572,0.201c4.875,0.017 9.752,-0 14.628,0.014c2.459,0.007 2.76,0.387 2.874,2.818c0.09,1.944 -0.32,3.755 -1.038,5.529c-0.736,1.819 -1.921,2.743 -4.032,2.696c-5.077,-0.114 -10.158,-0.042 -15.237,-0.034c-2.121,0.003 -2.141,0.011 -2.588,2.179c-0.874,4.234 -1.729,8.472 -2.573,12.712c-0.088,0.443 -0.052,0.912 -0.086,1.62c1.414,0.134 2.736,0.358 4.059,0.367c5.553,0.041 11.109,0.131 16.658,-0.028c2.843,-0.081 3.387,1.452 2.97,3.711c-0.294,1.592 -0.563,3.207 -1.071,4.735c-0.722,2.17 -1.674,2.75 -3.92,2.751c-10.023,0.005 -20.046,0.008 -30.068,-0.002c-3.433,-0.003 -4.776,-1.674 -4.099,-5.091c1.867,-9.415 3.75,-18.826 5.621,-28.24c1.738,-8.743 3.474,-17.488 5.196,-26.235c0.396,-2.014 1.134,-3.796 3.185,-4.618c0.73,-0.293 1.564,-0.465 2.351,-0.467c10.226,-0.03 20.452,-0.026 30.678,-0.014c2.115,0.003 2.603,0.389 2.467,2.497c-0.13,2.006 -0.447,4.03 -0.964,5.972c-0.54,2.031 -1.461,2.55 -3.575,2.562c-2.303,0.014 -4.607,-0.039 -6.908,0.013c-4.525,0.103 -9.049,0.257 -13.574,0.398c-0.194,0.006 -0.387,0.091 -0.878,0.213" style="fill:#00a9dc;fill-rule:nonzero;"/><path d="M583.853,189.209c4.793,0.37 8.706,0.726 12.342,2.416c0.732,0.339 1.437,0.751 2.115,1.193c1.246,0.814 1.84,2.058 1.658,3.478c-0.24,1.869 -0.586,3.748 -1.128,5.549c-0.652,2.168 -1.947,3.411 -4.595,1.748c-2.896,-1.819 -6.099,-2.785 -9.542,-3.103c-4.863,-0.45 -8.795,2.372 -9.58,7.02c-0.368,2.186 0.527,3.854 2.041,5.216c1.1,0.988 2.351,1.827 3.603,2.625c2.339,1.494 4.748,2.878 7.09,4.366c8.375,5.319 9.94,14.453 6.228,22.819c-3.091,6.967 -8.868,10.766 -16.001,12.612c-2.724,0.705 -5.592,1.214 -8.389,1.187c-5.084,-0.046 -10.111,-0.81 -14.672,-3.335c-1.548,-0.858 -3.121,-1.789 -3.293,-3.819c-0.066,-0.789 0.058,-1.609 0.205,-2.395c0.287,-1.524 0.509,-3.084 1.016,-4.538c0.946,-2.704 2.133,-2.991 4.639,-1.639c2.312,1.248 4.643,2.593 7.132,3.354c3.966,1.213 8.013,1.205 11.846,-0.787c3.183,-1.654 4.824,-4.718 4.219,-8.243c-0.163,-0.945 -0.651,-2.004 -1.331,-2.652c-1.358,-1.295 -2.903,-2.413 -4.458,-3.475c-2.625,-1.794 -5.45,-3.317 -7.953,-5.261c-5.271,-4.093 -7.249,-9.637 -6.29,-16.179c1.309,-8.926 6.884,-14.153 15.168,-16.703c2.817,-0.866 5.832,-1.084 7.93,-1.454" style="fill:#00a9dc;fill-rule:nonzero;"/><path d="M219.956,243.374l2.753,-0c5.081,-0 10.162,-0.007 15.242,0.003c2.451,0.005 3.432,1.145 2.982,3.571c-0.345,1.856 -0.681,3.735 -1.275,5.519c-0.75,2.254 -1.58,2.726 -3.934,2.727c-9.077,0.008 -18.155,0.007 -27.232,-0.006c-0.6,-0.001 -1.225,-0.05 -1.796,-0.219c-1.713,-0.507 -2.428,-1.305 -2.308,-3.093c0.147,-2.214 0.472,-4.43 0.904,-6.61c3.349,-16.899 6.742,-33.79 10.125,-50.683c0.106,-0.529 0.261,-1.05 0.363,-1.581c0.262,-1.368 1.135,-2.134 2.443,-2.397c3.155,-0.635 6.325,-0.678 9.486,-0.069c1.801,0.347 2.258,1.029 1.924,3.111c-0.374,2.334 -0.904,4.645 -1.365,6.966c-2.631,13.259 -5.266,26.518 -7.889,39.779c-0.167,0.848 -0.245,1.714 -0.423,2.982" style="fill:#00a9dc;fill-rule:nonzero;"/><path d="M114.242,219.582c0.137,4.741 -0.509,9.699 -1.282,14.644c-0.106,0.679 -0.211,1.466 -1.168,1.29c-0.833,-0.155 -1.018,-0.853 -0.837,-1.586c1.174,-4.765 1.321,-9.662 1.342,-14.495c0.023,-4.837 -0.352,-9.698 -1.203,-14.516c-2.978,-16.866 -10.525,-31.471 -21.734,-44.25c-8.019,-9.143 -17.508,-16.51 -28.092,-22.471c-10.805,-6.085 -22.312,-10.334 -34.428,-12.907c-5.078,-1.08 -10.2,-1.972 -15.405,-2.22c-3.237,-0.154 -6.476,-0.273 -9.714,-0.409c-0.338,-0.014 -0.761,0.091 -0.994,-0.073c-0.334,-0.235 -0.731,-0.668 -0.727,-1.013c0.003,-0.349 0.395,-0.806 0.74,-1.006c0.313,-0.182 0.791,-0.109 1.195,-0.1c8.951,0.221 17.815,1.202 26.558,3.167c9.745,2.19 19.131,5.432 28.085,9.864c9.083,4.497 17.474,10.046 25.082,16.761c8.289,7.315 15.296,15.689 20.786,25.292c5.25,9.183 8.892,18.953 10.603,29.424c0.776,4.748 1.264,9.509 1.193,14.604" style="fill:#00a9dc;fill-rule:nonzero;"/><path d="M236.109,181.547c-0.564,-0.396 -0.98,-0.689 -1.583,-1.114c1.536,-1.948 2.942,-3.835 4.457,-5.631c9.015,-10.685 19.381,-19.824 31.297,-27.167c12.938,-7.975 26.863,-13.408 41.86,-15.965c7.561,-1.289 15.204,-1.792 22.863,-1.287c20.08,1.326 37.966,8.205 53.305,21.388c0.351,0.303 0.64,0.679 1.048,1.118c-0.347,0.431 -0.664,0.825 -1.047,1.301c-0.417,-0.276 -0.754,-0.475 -1.065,-0.71c-3.234,-2.451 -6.342,-5.093 -9.722,-7.327c-9.131,-6.04 -19.165,-9.898 -29.886,-12.14c-8.629,-1.806 -17.351,-1.97 -26.047,-1.463c-9.673,0.563 -19.08,2.803 -28.222,6.097c-13.457,4.849 -25.585,11.998 -36.569,21.101c-7.167,5.94 -13.59,12.619 -19.276,19.997c-0.41,0.532 -0.829,1.058 -1.413,1.802" style="fill:#00a9dc;fill-rule:nonzero;"/><path d="M138.68,146.309c-0.485,-0.546 -0.79,-0.888 -1.146,-1.288c0.196,-0.258 0.322,-0.494 0.509,-0.66c4.071,-3.596 7.723,-7.583 11.042,-11.877c9.287,-12.013 15.197,-25.526 17.783,-40.467c0.563,-3.251 0.657,-6.583 0.952,-9.879c0.131,-1.479 0.352,-2.964 0.319,-4.442c-0.265,-11.954 -2.417,-23.498 -7.381,-34.466c-5.479,-12.111 -13.511,-22.151 -24.158,-30.066c-3.03,-2.254 -6.326,-4.149 -9.663,-6.315c0.242,-0.385 0.537,-0.855 0.877,-1.397c3.487,1.581 6.509,3.628 9.458,5.764c10.521,7.619 18.529,17.366 24.228,29.01c3.958,8.083 6.41,16.618 7.689,25.534c0.861,6.001 1.015,12.022 0.632,18.025c-0.523,8.193 -2.208,16.21 -5.007,23.947c-3.932,10.865 -9.547,20.775 -17.12,29.539c-2.741,3.172 -5.638,6.19 -9.014,9.038" style="fill:#00a9dc;fill-rule:nonzero;"/><path d="M210.051,142.677c-0.462,0.426 -0.795,0.733 -1.199,1.106c-0.361,-0.326 -0.708,-0.547 -0.936,-0.857c-2.688,-3.654 -5.513,-7.219 -8.003,-11.004c-6.964,-10.585 -12.245,-21.978 -15.872,-34.126c-1.879,-6.296 -3.279,-12.691 -4.12,-19.215c-0.736,-5.707 -1.214,-11.425 -1.124,-17.182c0.147,-9.233 1.325,-18.336 3.753,-27.245c3.201,-11.743 8.347,-22.569 15.677,-32.323c0.441,-0.587 0.915,-1.15 1.459,-1.831c0.495,0.37 0.898,0.671 1.43,1.071c-0.956,1.354 -1.841,2.617 -2.735,3.873c-8.311,11.675 -13.381,24.663 -15.927,38.726c-1.578,8.715 -1.989,17.495 -1.458,26.284c0.672,11.113 2.902,21.966 6.586,32.498c4.962,14.193 12.099,27.176 21.556,38.875c0.295,0.364 0.529,0.777 0.913,1.35" style="fill:#00a9dc;fill-rule:nonzero;"/><path d="M217.532,147.619c1.689,-0 3.234,0.011 4.779,-0.002c19.014,-0.168 36.437,-5.439 52.043,-16.387c10.411,-7.304 18.736,-16.524 24.99,-27.627c4.534,-8.05 7.439,-16.654 8.947,-25.731c0.843,-5.079 1.113,-10.224 0.848,-15.368c-0.135,-2.627 -0.548,-5.238 -0.841,-7.856c-0.023,-0.2 -0.092,-0.395 -0.14,-0.593c-0.183,-0.784 0.237,-1.151 0.932,-1.264c0.728,-0.12 0.945,0.365 1.006,0.964c0.295,2.888 0.581,5.777 0.875,8.666c0.276,2.69 0.091,5.38 -0,8.07c-0.238,6.949 -1.613,13.704 -3.814,20.263c-3.598,10.721 -9.223,20.3 -16.777,28.737c-7.259,8.107 -15.704,14.672 -25.348,19.715c-8.952,4.682 -18.47,7.64 -28.396,9.318c-5.954,1.005 -11.977,1.062 -17.998,0.907c-1.221,-0.031 -1.231,-0.119 -1.106,-1.812" style="fill:#00a9dc;fill-rule:nonzero;"/><path d="M122.576,148.684c-15.622,0.11 -29.859,-4.443 -42.736,-13.139c-13.779,-9.304 -23.674,-21.846 -30.259,-37.092c-3.41,-7.898 -5.561,-16.122 -6.479,-24.623c-0.542,-5.026 -0.377,-10.128 -0.527,-15.196c-0.008,-0.27 0.023,-0.541 0.04,-0.812c0.038,-0.63 0.331,-1.016 1.004,-1.023c0.807,-0.007 1.043,0.49 1.037,1.19c-0.003,0.338 0.013,0.682 -0.039,1.013c-0.452,2.829 -0.386,5.643 -0.002,8.481c0.272,2.003 0.25,4.045 0.465,6.057c0.966,9.081 3.299,17.789 7.133,26.092c3.341,7.232 7.475,13.963 12.7,19.983c8.903,10.255 19.567,18.019 32.4,22.681c6.721,2.442 13.622,3.897 20.773,4.382c4.489,0.303 8.92,0.1 13.365,-0.372c0.201,-0.022 0.401,-0.066 0.604,-0.074c0.573,-0.023 1.119,0.038 1.216,0.758c0.1,0.738 -0.25,1.176 -0.984,1.255c-1.474,0.16 -2.949,0.361 -4.429,0.422c-1.758,0.073 -3.521,0.017 -5.282,0.017" style="fill:#00a9dc;fill-rule:nonzero;"/><path d="M561.719,287.009c0,0.54 -0.072,1.091 0.014,1.617c0.299,1.85 1.972,2.695 3.233,1.81c0.923,-0.649 1.93,-1.261 2.647,-2.104c1.389,-1.633 1.838,-3.695 2.306,-5.757c0.29,-1.274 -0.122,-2.085 -1.01,-2.817c-1.686,-1.391 -3.8,-1.168 -5.15,0.595c-1.497,1.955 -1.929,4.268 -2.04,6.656m6.786,5.414c-0.036,-0.294 -0.095,-0.616 -0.11,-0.939c-0.011,-0.255 0.031,-0.511 0.052,-0.787c-1.276,0.718 -2.428,1.538 -3.706,2.047c-2.68,1.069 -5.686,-0.29 -5.973,-3.937c-0.244,-3.107 0.397,-6.027 1.998,-8.723c2.356,-3.964 6.323,-4.685 9.959,-1.702c0.255,-0.433 0.507,-0.858 0.799,-1.352c0.353,-0.027 0.751,-0.09 1.147,-0.078c0.318,0.01 0.634,0.112 1.085,0.198c-0.58,2.929 -1.135,5.757 -1.702,8.583c-0.358,1.783 -0.729,3.562 -1.101,5.341c-0.34,1.631 -0.506,1.725 -2.448,1.349" style="fill:#fff;fill-rule:nonzero;"/><path d="M556.676,274.664c-1.708,-0.388 -3.178,-0.902 -4.676,-1.013c-1.608,-0.118 -2.998,1.04 -3.383,2.393c-0.418,1.474 0.134,2.785 1.642,3.79c0.898,0.599 1.828,1.152 2.748,1.72c4.662,2.878 2.944,8.445 -0.486,10.286c-2.849,1.53 -5.781,1.687 -8.756,0.389c-1.833,-0.799 -1.966,-1.356 -0.776,-3.351c0.568,0.282 1.15,0.569 1.731,0.859c1.713,0.855 3.488,0.991 5.3,0.395c1.474,-0.484 2.345,-1.529 2.627,-3.053c0.271,-1.475 -0.479,-2.473 -1.606,-3.24c-1.003,-0.684 -2.054,-1.299 -3.081,-1.949c-3.767,-2.381 -3.057,-7.33 -0.073,-9.405c2.515,-1.75 5.236,-2.044 8.034,-0.707c1.533,0.732 1.639,1.381 0.755,2.886" style="fill:#fff;fill-rule:nonzero;"/><path d="M594.281,270.2c-0.607,3.014 -1.194,5.912 -1.773,8.81c-0.792,3.966 -1.562,7.936 -2.373,11.897c-0.384,1.872 -0.834,2.074 -3.027,1.364c0.31,-1.737 0.596,-3.513 0.95,-5.274c1.036,-5.152 2.099,-10.298 3.152,-15.447c0.385,-1.881 0.817,-2.103 3.071,-1.35" style="fill:#fff;fill-rule:nonzero;"/><path d="M587.172,277.094c-0.163,0.727 -0.265,1.251 -0.402,1.766c-0.05,0.187 -0.181,0.352 -0.338,0.642c-0.423,-0.055 -0.866,-0.107 -1.307,-0.174c-0.869,-0.13 -1.562,0.164 -2.208,0.756c-1.546,1.417 -2.595,3.122 -3.035,5.165c-0.498,2.305 -0.921,4.626 -1.368,6.894c-1.39,0.627 -1.39,0.627 -2.831,0.028c0.993,-4.961 1.994,-9.963 3.021,-15.099c0.772,-0.052 1.417,-0.093 2.18,-0.143c0.083,0.674 0.152,1.226 0.235,1.895c1.706,-1.637 3.391,-3.087 6.053,-1.73" style="fill:#fff;fill-rule:nonzero;"/><path d="M564.417,269.833c2.398,-0.361 2.406,-0.365 3.479,1.516c0.496,0.866 0.963,1.749 1.425,2.635c0.05,0.096 -0.016,0.253 -0.04,0.497c-0.616,0.505 -1.264,0.44 -1.92,-0.065c-0.643,-0.496 -2.571,-3.455 -2.944,-4.583" style="fill:#fff;fill-rule:nonzero;"/></g></svg>